<?xml version="1.0" encoding="utf-8"?>
<!-- Generator: Adobe Illustrator 18.0.0, SVG Export Plug-In . SVG Version: 6.00 Build 0)  -->
<!DOCTYPE svg PUBLIC "-//W3C//DTD SVG 1.1//EN" "http://www.w3.org/Graphics/SVG/1.1/DTD/svg11.dtd">
<svg version="1.1" id="Layer_1" xmlns="http://www.w3.org/2000/svg" xmlns:xlink="http://www.w3.org/1999/xlink" x="0px" y="0px"
	 viewBox="0 0 20 20" enable-background="new 0 0 20 20" xml:space="preserve">
<g>
	<path fill="#02679A" d="M10.6,9.3L10.6,9.3C10.6,9.3,10.6,9.3,10.6,9.3L10.6,9.3z"/>
	<path fill="#02679A" d="M0,0v20h20V0H0z M7.3,14.8H5.1V8.3h2.1V14.8z M6.2,7.5L6.2,7.5C5.5,7.5,5,7,5,6.3c0-0.6,0.5-1.1,1.2-1.1
		c0.7,0,1.2,0.5,1.2,1.1C7.4,7,6.9,7.5,6.2,7.5z M15,14.8h-2.1v-3.4c0-0.9-0.3-1.5-1.1-1.5c-0.6,0-0.9,0.4-1.1,0.8
		c-0.1,0.1-0.1,0.3-0.1,0.5v3.6H8.5c0,0,0-5.8,0-6.4h2.1v0.9c0.3-0.4,0.8-1.1,1.9-1.1c1.4,0,2.5,0.9,2.5,2.9V14.8z"/>
</g>
</svg>
